<?xml version="1.0" encoding="UTF-8"?>
<svg id="Layer_2" data-name="Layer 2" xmlns="http://www.w3.org/2000/svg" viewBox="0 0 1347.04 800">
  <defs>
    <style>
      .cls-1 {
        fill: #50b848;
      }

      .cls-2 {
        fill: #114a8a;
      }
    </style>
  </defs>
  <g id="Layer_2-2" data-name="Layer 2">
    <g>
      <g>
        <polygon class="cls-1" points="554.18 356.19 447.35 171.15 382.03 284.28 423.54 356.19 554.18 356.19"/>
        <polygon class="cls-2" points="694.45 483.11 496.82 483.11 382.03 284.28 579.66 284.28 694.45 483.11"/>
        <polygon class="cls-1" points="627.4 113.13 841.06 113.13 775.74 0 692.71 0 627.4 113.13"/>
        <polygon class="cls-2" points="447.35 171.15 546.16 0 775.74 0 676.93 171.15 447.35 171.15"/>
        <polygon class="cls-1" points="801.28 298.07 694.45 483.11 825.08 483.11 866.59 411.2 801.28 298.07"/>
        <polygon class="cls-2" points="841.06 113.13 939.87 284.28 825.08 483.11 726.27 311.96 841.06 113.13"/>
      </g>
      <g>
        <g>
          <path class="cls-1" d="M23.54,745.41c.68,5.01,2.4,9.58,5.18,13.7,2.77,4.13,6.36,7.61,10.76,10.45,4.4,2.84,9.6,5.04,15.63,6.6,6.02,1.55,12.62,2.33,19.79,2.33s13.67-.61,19.48-1.83c5.82-1.22,10.76-2.97,14.82-5.28,4.06-2.3,7.2-5.07,9.44-8.32,2.23-3.25,3.35-6.9,3.35-10.96,0-3.11-.61-5.85-1.82-8.22-1.22-2.36-3.18-4.43-5.89-6.19-2.71-1.76-6.26-3.21-10.65-4.36-4.4-1.15-9.85-2.13-16.34-2.94l-31.26-3.86c-9.2-1.22-17.12-2.94-23.75-5.18-6.63-2.23-12.04-5.04-16.24-8.42-4.19-3.38-7.3-7.37-9.33-11.97-2.03-4.6-3.05-9.87-3.05-15.83,0-6.9,1.59-13.12,4.77-18.67,3.17-5.55,7.71-10.28,13.6-14.21,5.89-3.92,12.92-6.97,21.11-9.13,8.18-2.16,17.35-3.25,27.5-3.25s19.45,1.15,27.91,3.45c8.46,2.31,15.76,5.58,21.92,9.85,6.16,4.26,11.06,9.33,14.72,15.22,3.65,5.89,5.68,12.48,6.09,19.79h-23.55c-.54-4.46-2.03-8.45-4.46-11.97-2.43-3.52-5.72-6.52-9.85-9.03-4.13-2.5-9-4.46-14.61-5.89-5.62-1.42-11.81-2.13-18.57-2.13s-12.62.61-17.96,1.82c-5.35,1.22-9.88,2.91-13.6,5.07-3.72,2.17-6.6,4.77-8.63,7.81-2.03,3.05-3.04,6.53-3.04,10.45,0,6.09,2.43,10.76,7.3,14,4.87,3.25,13.26,5.62,25.17,7.1l31.25,4.26c10.15,1.22,18.67,2.91,25.58,5.07,6.9,2.17,12.51,4.81,16.84,7.92,4.33,3.11,7.41,6.9,9.23,11.37,1.83,4.47,2.74,9.74,2.74,15.83,0,7.3-1.69,13.9-5.07,19.79-3.38,5.89-8.15,10.89-14.31,15.02-6.16,4.13-13.57,7.34-22.23,9.64-8.66,2.3-18.27,3.45-28.82,3.45s-20.71-1.25-29.63-3.75c-8.93-2.5-16.64-6.05-23.14-10.65-6.49-4.6-11.67-10.11-15.53-16.54-3.86-6.43-5.99-13.57-6.39-21.42h23.54Z"/>
          <g>
            <path class="cls-1" d="M258.62,720.85v17.86h53.42v57.64h22.08v-28.7c0-25.85-20.96-46.81-46.81-46.81h-28.7Z"/>
            <path class="cls-1" d="M189.41,728.03v-18.09c0-25.4,20.59-46,46-46h11.87v-20.7h-16.2c-36.01,0-65.21,29.19-65.21,65.21v15.32c0,39.3,31.86,71.16,71.16,71.16h18.67v-17.32h-16.71c-27.38,0-49.58-22.2-49.58-49.58Z"/>
            <path class="cls-1" d="M239.19,643.24v20.7h36.54c17.29,0,31.31,14.02,31.31,31.31v7.22h24.41v-4.87c0-30.03-24.34-54.37-54.37-54.37h-37.89Z"/>
            <path class="cls-1" d="M290.04,764.77c-10.77,8.05-24.13,12.84-38.62,12.84h0v17.32h0c14.31,0,27.38-3.7,38.62-10.15v-20.01Z"/>
          </g>
        </g>
        <g>
          <path class="cls-2" d="M810.22,659.85c-11.93-9.1-26.94-13.71-44.62-13.71-14.14,0-26.93,3.23-38.01,9.6-11.06,6.36-19.95,15.41-26.42,26.87-6.48,11.48-9.76,25.09-9.76,40.46s3.04,29.03,9.03,40.53c5.97,11.45,14.49,20.47,25.34,26.82,10.86,6.36,24.26,9.59,39.82,9.59,17.68,0,32.68-4.71,44.6-13.99,11.2-8.72,18.62-20.16,22.05-34.02h-24.48c-1.42,5.72-4.07,10.75-7.89,14.96-4.16,4.58-9.23,8.1-15.09,10.44-5.79,2.32-12.36,3.5-19.51,3.5s-13.5-1.23-19.51-3.65c-6.06-2.45-11.4-6.22-15.86-11.21-4.44-4.96-7.91-11.1-10.32-18.23-2.39-7.07-3.61-15.39-3.61-24.72,0-13.07,2.28-24.05,6.78-32.63,4.52-8.63,10.63-15.26,18.15-19.71,7.5-4.44,15.69-6.69,24.36-6.69,10.52,0,19.88,2.68,27.81,7.96,7.61,5.08,12.56,12.52,14.71,22.15h24.46c-3.42-14.22-10.84-25.76-22.05-34.31Z"/>
          <polygon class="cls-2" points="954.51 649.79 906.12 727.31 906.13 727.31 863.03 796.35 887.98 796.35 979.17 649.79 954.51 649.79"/>
          <path class="cls-2" d="M1347.04,721.71v-6.54c0-12.35-2.83-23.88-8.41-34.26-5.58-10.36-13.61-18.84-23.88-25.2-10.26-6.35-22.82-9.56-37.34-9.56s-27.18,3.28-38.14,9.74c-10.96,6.46-19.64,15.49-25.82,26.85-6.18,11.39-9.32,25.06-9.32,40.64s3.19,28.71,9.47,40.18c6.27,11.47,14.96,20.5,25.81,26.85,10.87,6.36,23.55,9.59,37.69,9.59,11.6,0,21.93-2.08,30.73-6.18,8.79-4.1,16.26-9.79,22.22-16.92,5.34-6.39,9.37-13.64,11.97-21.57h-23.63c-3.22,7.65-8.26,13.86-14.98,18.48-7.12,4.89-15.98,7.37-26.31,7.37-8.66,0-16.89-2.14-24.46-6.35-7.62-4.23-13.79-10.55-18.33-18.78-3.97-7.2-6.23-16.12-6.71-26.49l-.1-2.25h119.36c.11-2.01.17-3.89.17-5.6ZM1227.66,710.93l.23-2.36c.82-8.36,2.99-15.61,6.44-21.55,4.55-7.84,10.68-13.75,18.22-17.57,7.46-3.79,15.72-5.71,24.54-5.71,12.86,0,23.78,3.97,32.47,11.81,8.73,7.88,13.36,19.04,13.79,33.17l.06,2.22h-95.75Z"/>
          <polygon class="cls-2" points="906.3 727.31 855.83 649.79 829.97 649.79 880.54 727.31 906.3 727.31"/>
          <path class="cls-2" d="M1154.73,796.35h48.96v-19.63h-51.11v-126.93h-23.68v120.73c0,14.24,11.59,25.83,25.83,25.83Z"/>
          <path class="cls-2" d="M676.67,721.71v-6.54c0-12.35-2.83-23.88-8.41-34.26-5.57-10.36-13.6-18.83-23.87-25.2-10.26-6.35-22.82-9.56-37.34-9.56s-27.18,3.28-38.15,9.74c-10.95,6.45-19.64,15.49-25.82,26.85-6.18,11.39-9.32,25.06-9.32,40.64s3.19,28.7,9.47,40.18c6.27,11.47,14.95,20.5,25.81,26.85,10.87,6.36,23.55,9.59,37.7,9.59,11.59,0,21.93-2.08,30.72-6.18,8.8-4.1,16.27-9.79,22.23-16.92,5.34-6.4,9.37-13.65,11.97-21.57h-23.62c-3.23,7.65-8.27,13.87-14.99,18.48-7.13,4.89-15.98,7.37-26.31,7.37-8.65,0-16.89-2.14-24.47-6.35-7.63-4.23-13.79-10.55-18.33-18.78-3.97-7.2-6.23-16.11-6.7-26.49l-.1-2.25h119.36c.12-2.07.17-3.95.17-5.6ZM557.3,710.93l.23-2.36c.82-8.36,2.98-15.61,6.44-21.55,4.55-7.83,10.68-13.75,18.22-17.57,7.47-3.79,15.72-5.71,24.55-5.71,12.85,0,23.78,3.97,32.46,11.81,8.73,7.88,13.36,19.04,13.79,33.17l.06,2.22h-95.76Z"/>
          <path class="cls-2" d="M485.52,722.86c20.04,0,36.34-16.3,36.34-36.34v-4.05c0-20.04-16.3-36.34-36.34-36.34h-102.01v150.21h23.68v-133.92h73.21c9.42,0,17.08,7.66,17.08,17.08v10.01c0,9.42-7.66,17.08-17.08,17.08h-66.12l83.45,89.76h31.64l-72.99-73.49h29.14Z"/>
          <path class="cls-2" d="M1086.81,659.85c-11.92-9.1-26.94-13.71-44.62-13.71-14.15,0-26.94,3.23-38.01,9.6-11.06,6.36-19.95,15.4-26.42,26.87-6.47,11.47-9.76,25.08-9.76,40.46s3.04,29.04,9.03,40.53c5.97,11.45,14.5,20.47,25.34,26.82,10.87,6.36,24.26,9.59,39.82,9.59,17.68,0,32.69-4.71,44.6-13.99,11.21-8.72,18.62-20.16,22.05-34.02h-24.47c-1.42,5.72-4.07,10.75-7.89,14.96-4.15,4.58-9.23,8.1-15.09,10.43-5.79,2.32-12.35,3.5-19.5,3.5s-13.5-1.23-19.51-3.65c-6.06-2.44-11.4-6.22-15.86-11.21-4.44-4.96-7.91-11.1-10.32-18.23-2.39-7.08-3.61-15.39-3.61-24.72,0-13.07,2.28-24.05,6.79-32.63,4.52-8.63,10.63-15.26,18.15-19.71,7.5-4.44,15.69-6.69,24.36-6.69,10.52,0,19.87,2.68,27.81,7.96,7.61,5.07,12.55,12.52,14.71,22.15h24.46c-3.42-14.22-10.84-25.76-22.05-34.31Z"/>
        </g>
      </g>
    </g>
  </g>
</svg>