<?xml version="1.0" encoding="UTF-8"?>
<svg id="Layer_2" data-name="Layer 2" xmlns="http://www.w3.org/2000/svg" viewBox="0 0 3305.21 400">
  <defs>
    <style>
      .cls-1 {
        fill: #50b848;
      }

      .cls-2 {
        fill: #114a8a;
      }
    </style>
  </defs>
  <g id="Layer_2-2" data-name="Layer 2">
    <g>
      <g>
        <polygon class="cls-1" points="142.53 294.91 54.08 141.71 0 235.38 34.37 294.91 142.53 294.91"/>
        <polygon class="cls-2" points="258.67 400 95.04 400 0 235.38 163.63 235.38 258.67 400"/>
        <polygon class="cls-1" points="203.16 93.67 380.06 93.67 325.98 0 257.24 0 203.16 93.67"/>
        <polygon class="cls-2" points="54.08 141.71 135.9 0 325.98 0 244.17 141.71 54.08 141.71"/>
        <polygon class="cls-1" points="347.13 246.79 258.67 400 366.84 400 401.21 340.46 347.13 246.79"/>
        <polygon class="cls-2" points="380.06 93.67 461.88 235.38 366.84 400 285.02 258.29 380.06 93.67"/>
      </g>
      <g>
        <g>
          <path class="cls-1" d="M623.07,253.88c1.37,10.15,4.87,19.4,10.49,27.77,5.62,8.37,12.88,15.43,21.8,21.18,8.91,5.76,19.46,10.22,31.67,13.37,12.2,3.15,25.57,4.73,40.1,4.73s27.7-1.24,39.49-3.71c11.79-2.47,21.8-6.02,30.03-10.7,8.22-4.65,14.59-10.28,19.13-16.86,4.52-6.58,6.78-13.99,6.78-22.21,0-6.3-1.23-11.86-3.7-16.66-2.47-4.79-6.45-8.98-11.93-12.55-5.49-3.56-12.68-6.51-21.59-8.84-8.92-2.33-19.95-4.32-33.11-5.96l-63.34-7.82c-18.65-2.47-34.69-5.96-48.12-10.49-13.43-4.52-24.41-10.21-32.9-17.07-8.5-6.85-14.8-14.94-18.92-24.27-4.12-9.31-6.17-20.01-6.17-32.08,0-13.99,3.22-26.59,9.67-37.85,6.43-11.24,15.63-20.84,27.56-28.79,11.93-7.95,26.18-14.12,42.78-18.51,16.58-4.38,35.16-6.58,55.73-6.58s39.42,2.34,56.55,6.99c17.14,4.67,31.94,11.31,44.43,19.95,12.48,8.64,22.42,18.92,29.82,30.85,7.4,11.93,11.51,25.3,12.34,40.1h-47.72c-1.09-9.05-4.11-17.13-9.05-24.27-4.93-7.13-11.59-13.22-19.95-18.3-8.36-5.07-18.23-9.05-29.61-11.93-11.38-2.88-23.93-4.31-37.63-4.31s-25.58,1.23-36.4,3.7c-10.84,2.47-20.02,5.9-27.56,10.28-7.55,4.39-13.37,9.67-17.49,15.84-4.12,6.17-6.16,13.23-6.16,21.18,0,12.34,4.93,21.8,14.8,28.38,9.87,6.58,26.87,11.38,51.01,14.39l63.33,8.64c20.57,2.47,37.85,5.9,51.83,10.28,13.98,4.39,25.36,9.74,34.14,16.04,8.77,6.31,15.01,13.99,18.71,23.03,3.71,9.06,5.56,19.74,5.56,32.09,0,14.8-3.43,28.17-10.28,40.1-6.86,11.93-16.52,22.07-29,30.44-12.49,8.36-27.5,14.87-45.04,19.53-17.55,4.66-37.02,6.99-58.4,6.99s-41.96-2.53-60.05-7.6c-18.1-5.07-33.73-12.27-46.89-21.59-13.16-9.32-23.65-20.5-31.46-33.52-7.81-13.02-12.14-27.5-12.95-43.4h47.71Z"/>
          <g>
            <path class="cls-1" d="M1099.47,204.12v36.2h108.26v116.82h44.75v-58.15c0-52.39-42.47-94.86-94.86-94.86h-58.15Z"/>
            <path class="cls-1" d="M959.21,218.67v-36.67c0-51.48,41.73-93.22,93.22-93.22h24.05v-41.95h-32.83c-72.98,0-132.15,59.16-132.15,132.15v31.04c0,79.65,64.57,144.22,144.22,144.22h37.84v-35.09h-33.87c-55.49,0-100.48-44.99-100.48-100.48Z"/>
            <path class="cls-1" d="M1060.09,46.83v41.95h74.05c35.05,0,63.46,28.41,63.46,63.46v14.64h49.46v-9.86c0-60.85-49.33-110.18-110.18-110.18h-76.79Z"/>
            <path class="cls-1" d="M1163.14,293.12c-21.83,16.32-48.89,26.03-78.26,26.03h0v35.09h0c29.01,0,55.48-7.5,78.26-20.57v-40.55Z"/>
          </g>
        </g>
        <g>
          <path class="cls-2" d="M2217.32,80.49c-24.17-18.43-54.6-27.78-90.43-27.78-28.66,0-54.58,6.54-77.04,19.45-22.42,12.9-40.44,31.22-53.54,54.46-13.13,23.27-19.78,50.85-19.78,81.99s6.16,58.84,18.31,82.13c12.09,23.2,29.37,41.48,51.35,54.34,22.01,12.9,49.17,19.43,80.71,19.43,35.82,0,66.23-9.54,90.39-28.36,22.7-17.67,37.73-40.86,44.68-68.94h-49.6c-2.87,11.59-8.25,21.78-15.98,30.32-8.42,9.29-18.71,16.41-30.58,21.15-11.74,4.7-25.04,7.08-39.53,7.08s-27.36-2.49-39.54-7.39c-12.29-4.96-23.1-12.61-32.13-22.72-8.99-10.06-16.02-22.49-20.91-36.95-4.85-14.34-7.31-31.19-7.31-50.1,0-26.48,4.63-48.73,13.75-66.13,9.17-17.49,21.54-30.93,36.77-39.94,15.19-8.99,31.81-13.55,49.37-13.55,21.32,0,40.28,5.43,56.35,16.14,15.42,10.29,25.44,25.38,29.8,44.89h49.57c-6.94-28.82-21.96-52.21-44.68-69.53Z"/>
          <polygon class="cls-2" points="2509.74 60.11 2411.68 217.21 2411.68 217.21 2324.34 357.13 2374.91 357.13 2559.7 60.11 2509.74 60.11"/>
          <path class="cls-2" d="M3305.21,205.85v-13.26c0-25.03-5.73-48.39-17.04-69.44-11.3-21-27.58-38.18-48.39-51.06-20.79-12.86-46.25-19.38-75.68-19.38s-55.08,6.64-77.3,19.74c-22.21,13.09-39.81,31.39-52.32,54.42-12.53,23.08-18.89,50.79-18.89,82.36s6.46,58.18,19.2,81.43c12.71,23.24,30.31,41.55,52.31,54.42,22.02,12.9,47.72,19.43,76.38,19.43,23.5,0,44.45-4.22,62.27-12.53,17.81-8.31,32.96-19.84,45.03-34.29,10.82-12.95,18.98-27.64,24.27-43.7h-47.88c-6.52,15.5-16.73,28.09-30.37,37.45-14.44,9.91-32.38,14.94-53.33,14.94-17.54,0-34.22-4.33-49.57-12.88-15.45-8.57-27.94-21.38-37.14-38.06-8.05-14.6-12.62-32.66-13.59-53.68l-.21-4.56h241.9c.23-4.08.34-7.89.34-11.36ZM3063.3,184.01l.47-4.79c1.66-16.94,6.05-31.64,13.05-43.68,9.23-15.88,21.65-27.86,36.93-35.6,15.12-7.68,31.86-11.57,49.73-11.57,26.05,0,48.19,8.05,65.8,23.93,17.68,15.96,27.08,38.58,27.94,67.22l.13,4.49h-194.05Z"/>
          <polygon class="cls-2" points="2412.04 217.21 2309.76 60.11 2257.35 60.11 2359.84 217.21 2412.04 217.21"/>
          <path class="cls-2" d="M2915.49,357.13h99.22v-39.79h-103.58V60.11h-47.99v244.66c0,28.86,23.48,52.35,52.35,52.35Z"/>
          <path class="cls-2" d="M1946.68,205.85v-13.26c0-25.03-5.74-48.39-17.05-69.44-11.28-20.99-27.56-38.17-48.38-51.06-20.79-12.86-46.25-19.38-75.68-19.38s-55.08,6.64-77.31,19.74c-22.2,13.07-39.8,31.38-52.32,54.42-12.53,23.08-18.89,50.79-18.89,82.36s6.46,58.17,19.2,81.43c12.71,23.24,30.31,41.55,52.31,54.42,22.03,12.9,47.73,19.43,76.39,19.43,23.5,0,44.44-4.22,62.26-12.53,17.82-8.31,32.98-19.85,45.04-34.28,10.83-12.98,18.99-27.67,24.27-43.71h-47.88c-6.54,15.51-16.76,28.11-30.38,37.45-14.44,9.91-32.38,14.94-53.32,14.94-17.54,0-34.22-4.33-49.58-12.88-15.45-8.58-27.95-21.38-37.15-38.06-8.04-14.6-12.62-32.66-13.58-53.68l-.21-4.56h241.89c.24-4.19.35-8,.35-11.36ZM1704.76,184.01l.47-4.79c1.66-16.95,6.05-31.64,13.05-43.68,9.22-15.88,21.65-27.86,36.93-35.6,15.13-7.68,31.86-11.57,49.74-11.57,26.05,0,48.19,8.05,65.79,23.93,17.68,15.97,27.08,38.58,27.95,67.22l.13,4.49h-194.06Z"/>
          <path class="cls-2" d="M1559.3,208.2c40.61,0,73.64-33.03,73.64-73.64v-8.21c0-40.61-33.03-73.64-73.64-73.64h-206.74v304.41h47.99V85.73h148.37c19.08,0,34.61,15.52,34.61,34.61v20.28c0,19.08-15.53,34.61-34.61,34.61h-134l169.12,181.9h64.13l-147.92-148.93h59.05Z"/>
          <path class="cls-2" d="M2777.85,80.49c-24.16-18.43-54.59-27.78-90.43-27.78-28.67,0-54.59,6.54-77.04,19.45-22.41,12.89-40.42,31.22-53.55,54.46-13.12,23.24-19.77,50.82-19.77,81.99s6.16,58.85,18.3,82.13c12.1,23.2,29.38,41.49,51.35,54.34,22.02,12.9,49.17,19.43,80.71,19.43,35.83,0,66.24-9.54,90.39-28.36,22.71-17.68,37.73-40.86,44.68-68.94h-49.6c-2.88,11.6-8.26,21.79-15.99,30.32-8.41,9.29-18.7,16.41-30.58,21.15-11.73,4.7-25.03,7.08-39.52,7.08s-27.36-2.49-39.53-7.39c-12.29-4.95-23.1-12.6-32.14-22.72-9-10.05-16.04-22.49-20.92-36.95-4.85-14.34-7.31-31.2-7.31-50.1,0-26.49,4.63-48.73,13.75-66.13,9.17-17.49,21.54-30.93,36.78-39.94,15.19-8.99,31.8-13.55,49.36-13.55,21.32,0,40.28,5.43,56.35,16.14,15.41,10.28,25.44,25.37,29.81,44.89h49.56c-6.94-28.82-21.96-52.21-44.68-69.53Z"/>
        </g>
      </g>
    </g>
  </g>
</svg>