<?xml version="1.0" encoding="UTF-8"?>
<svg id="Layer_3" data-name="Layer 3" xmlns="http://www.w3.org/2000/svg" viewBox="0 0 1775.96 500">
  <defs>
    <style>
      .cls-1 {
        fill: #50b848;
      }

      .cls-2 {
        fill: #114a8a;
      }
    </style>
  </defs>
  <g id="Layer_2" data-name="Layer 2">
    <g>
      <g>
        <polygon class="cls-1" points="178.17 368.64 67.6 177.14 0 294.22 42.97 368.64 178.17 368.64"/>
        <polygon class="cls-2" points="323.34 500 118.8 500 0 294.22 204.54 294.22 323.34 500"/>
        <polygon class="cls-1" points="253.95 117.09 475.08 117.09 407.48 0 321.55 0 253.95 117.09"/>
        <polygon class="cls-2" points="67.6 177.14 169.87 0 407.48 0 305.21 177.14 67.6 177.14"/>
        <polygon class="cls-1" points="433.91 308.49 323.34 500 458.55 500 501.51 425.58 433.91 308.49"/>
        <polygon class="cls-2" points="475.08 117.09 577.35 294.22 458.55 500 356.28 322.86 475.08 117.09"/>
      </g>
      <g>
        <g>
          <path class="cls-1" d="M684.92,238.36c.78,5.76,2.76,11,5.95,15.74,3.18,4.75,7.31,8.75,12.36,12.01,5.05,3.26,11.04,5.79,17.96,7.58,6.92,1.79,14.5,2.68,22.74,2.68s15.7-.7,22.39-2.1c6.69-1.4,12.36-3.42,17.03-6.07,4.66-2.64,8.27-5.83,10.84-9.56,2.56-3.73,3.84-7.93,3.84-12.59,0-3.57-.7-6.72-2.1-9.45-1.4-2.72-3.66-5.09-6.76-7.11-3.11-2.02-7.19-3.69-12.24-5.01-5.06-1.32-11.31-2.45-18.78-3.38l-35.92-4.44c-10.57-1.4-19.67-3.38-27.29-5.95-7.62-2.56-13.84-5.79-18.66-9.68-4.82-3.88-8.39-8.47-10.73-13.76-2.33-5.28-3.5-11.35-3.5-18.19,0-7.93,1.83-15.08,5.48-21.46,3.65-6.38,8.86-11.81,15.62-16.32,6.76-4.51,14.85-8,24.25-10.5,9.4-2.49,19.94-3.73,31.6-3.73s22.35,1.32,32.07,3.96c9.72,2.65,18.11,6.41,25.19,11.31,7.07,4.9,12.71,10.73,16.91,17.49,4.19,6.76,6.53,14.35,7,22.74h-27.06c-.62-5.13-2.33-9.71-5.13-13.76-2.8-4.04-6.57-7.5-11.31-10.38-4.74-2.87-10.34-5.13-16.79-6.76-6.45-1.63-13.57-2.45-21.33-2.45s-14.5.7-20.64,2.1c-6.14,1.4-11.35,3.34-15.62,5.83-4.28,2.49-7.58,5.48-9.91,8.98-2.33,3.5-3.49,7.5-3.49,12.01,0,7,2.8,12.36,8.39,16.09,5.6,3.73,15.24,6.45,28.92,8.16l35.91,4.9c11.66,1.4,21.46,3.35,29.39,5.83,7.93,2.49,14.38,5.52,19.36,9.1,4.97,3.58,8.51,7.93,10.61,13.06,2.1,5.14,3.15,11.19,3.15,18.2,0,8.39-1.94,15.97-5.83,22.74-3.89,6.76-9.37,12.51-16.44,17.26-7.08,4.74-15.59,8.43-25.54,11.08-9.95,2.64-20.99,3.96-33.12,3.96s-23.79-1.44-34.05-4.31c-10.26-2.87-19.13-6.96-26.59-12.24-7.46-5.29-13.41-11.62-17.84-19.01-4.43-7.38-6.88-15.59-7.34-24.61h27.05Z"/>
          <g>
            <path class="cls-1" d="M955.04,210.14v20.52h61.39v66.24h25.37v-32.97c0-29.71-24.08-53.79-53.79-53.79h-32.97Z"/>
            <path class="cls-1" d="M875.52,218.4v-20.79c0-29.19,23.66-52.86,52.86-52.86h13.64v-23.79h-18.61c-41.38,0-74.93,33.55-74.93,74.93v17.6c0,45.16,36.61,81.77,81.77,81.77h21.45v-19.9h-19.2c-31.47,0-56.97-25.51-56.97-56.97Z"/>
            <path class="cls-1" d="M932.71,120.96v23.79h41.99c19.87,0,35.98,16.11,35.98,35.98v8.3h28.04v-5.59c0-34.5-27.97-62.47-62.47-62.47h-43.54Z"/>
            <path class="cls-1" d="M991.14,260.61c-12.38,9.25-27.72,14.76-44.38,14.76h0v19.9h0c16.45,0,31.46-4.25,44.38-11.66v-22.99Z"/>
          </g>
        </g>
        <g>
          <path class="cls-2" d="M1159.11,338.95c-13.71-10.45-30.96-15.75-51.27-15.75-16.25,0-30.95,3.71-43.68,11.03-12.71,7.31-22.93,17.7-30.36,30.88-7.44,13.19-11.22,28.83-11.22,46.49s3.49,33.36,10.38,46.57c6.86,13.15,16.65,23.52,29.12,30.81,12.48,7.31,27.88,11.02,45.76,11.02,20.31,0,37.56-5.41,51.25-16.08,12.87-10.02,21.39-23.17,25.33-39.09h-28.13c-1.63,6.57-4.68,12.35-9.06,17.19-4.78,5.27-10.61,9.3-17.34,11.99-6.66,2.66-14.2,4.02-22.41,4.02s-15.52-1.41-22.42-4.19c-6.97-2.81-13.1-7.15-18.22-12.88-5.1-5.7-9.09-12.75-11.86-20.95-2.75-8.13-4.15-17.69-4.15-28.4,0-15.02,2.62-27.63,7.8-37.49,5.2-9.92,12.21-17.54,20.85-22.65,8.61-5.1,18.03-7.68,28-7.68,12.09,0,22.84,3.08,31.95,9.15,8.75,5.83,14.43,14.39,16.9,25.45h28.11c-3.93-16.34-12.45-29.6-25.33-39.43Z"/>
          <polygon class="cls-2" points="1324.92 327.4 1269.32 416.47 1269.32 416.47 1219.79 495.81 1248.47 495.81 1353.25 327.4 1324.92 327.4"/>
          <path class="cls-2" d="M1775.96,410.03v-7.52c0-14.19-3.25-27.44-9.66-39.37-6.41-11.91-15.64-21.65-27.44-28.95-11.79-7.29-26.23-10.99-42.91-10.99s-31.23,3.77-43.83,11.19c-12.59,7.42-22.57,17.8-29.66,30.86-7.11,13.08-10.71,28.8-10.71,46.7s3.66,32.99,10.88,46.17c7.21,13.18,17.19,23.56,29.66,30.86,12.49,7.31,27.06,11.02,43.31,11.02,13.32,0,25.2-2.39,35.31-7.11,10.1-4.71,18.69-11.25,25.54-19.44,6.14-7.35,10.76-15.67,13.76-24.78h-27.15c-3.7,8.79-9.49,15.93-17.22,21.24-8.19,5.62-18.36,8.47-30.24,8.47-9.95,0-19.4-2.46-28.11-7.3-8.76-4.86-15.84-12.12-21.06-21.58-4.56-8.28-7.16-18.52-7.71-30.44l-.12-2.58h137.16c.13-2.31.19-4.47.19-6.44ZM1638.79,397.65l.27-2.71c.94-9.6,3.43-17.94,7.4-24.77,5.23-9.01,12.28-15.8,20.94-20.19,8.58-4.35,18.06-6.56,28.2-6.56,14.77,0,27.33,4.56,37.31,13.57,10.03,9.05,15.36,21.88,15.84,38.11l.07,2.55h-110.03Z"/>
          <polygon class="cls-2" points="1269.52 416.47 1211.53 327.4 1181.81 327.4 1239.92 416.47 1269.52 416.47"/>
          <path class="cls-2" d="M1554.98,495.81h56.26v-22.56h-58.73v-145.85h-27.21v138.73c0,16.37,13.32,29.68,29.68,29.68Z"/>
          <path class="cls-2" d="M1005.66,410.03v-7.52c0-14.19-3.25-27.44-9.67-39.37-6.4-11.9-15.63-21.64-27.43-28.95-11.79-7.29-26.23-10.99-42.91-10.99s-31.23,3.77-43.83,11.19c-12.59,7.41-22.57,17.79-29.66,30.86-7.11,13.09-10.71,28.8-10.71,46.7s3.66,32.98,10.88,46.17c7.2,13.17,17.18,23.56,29.66,30.86,12.49,7.31,27.06,11.02,43.32,11.02,13.32,0,25.2-2.39,35.3-7.11,10.11-4.71,18.7-11.25,25.54-19.44,6.14-7.36,10.77-15.69,13.76-24.78h-27.15c-3.71,8.79-9.5,15.94-17.22,21.24-8.19,5.62-18.36,8.47-30.23,8.47-9.94,0-19.4-2.46-28.11-7.3-8.76-4.86-15.85-12.12-21.06-21.58-4.56-8.28-7.15-18.52-7.7-30.44l-.12-2.58h137.16c.13-2.38.2-4.54.2-6.44ZM868.48,397.65l.27-2.71c.94-9.61,3.43-17.94,7.4-24.77,5.23-9,12.27-15.8,20.94-20.19,8.58-4.35,18.07-6.56,28.2-6.56,14.77,0,27.32,4.56,37.3,13.57,10.03,9.05,15.36,21.88,15.85,38.11l.07,2.55h-110.04Z"/>
          <path class="cls-2" d="M786.01,411.36c23.02,0,41.76-18.73,41.76-41.75v-4.65c0-23.02-18.73-41.76-41.76-41.76h-117.22v172.61h27.21v-153.89h84.13c10.82,0,19.62,8.8,19.62,19.62v11.5c0,10.82-8.8,19.62-19.62,19.62h-75.98l95.89,103.14h36.36l-83.87-84.44h33.48Z"/>
          <path class="cls-2" d="M1476.94,338.95c-13.7-10.45-30.95-15.75-51.27-15.75-16.26,0-30.95,3.71-43.68,11.03-12.71,7.31-22.92,17.7-30.36,30.88-7.44,13.18-11.21,28.82-11.21,46.49s3.49,33.37,10.38,46.57c6.86,13.16,16.66,23.52,29.12,30.81,12.49,7.31,27.88,11.02,45.76,11.02,20.32,0,37.56-5.41,51.25-16.08,12.88-10.02,21.39-23.17,25.34-39.09h-28.12c-1.63,6.58-4.68,12.36-9.07,17.19-4.77,5.27-10.61,9.3-17.34,11.99-6.65,2.66-14.19,4.02-22.41,4.02s-15.52-1.41-22.41-4.19c-6.97-2.81-13.1-7.14-18.22-12.88-5.1-5.7-9.09-12.75-11.86-20.95-2.75-8.13-4.15-17.69-4.15-28.4,0-15.02,2.62-27.63,7.8-37.49,5.2-9.92,12.22-17.54,20.86-22.65,8.61-5.1,18.03-7.68,27.99-7.68,12.09,0,22.84,3.08,31.95,9.15,8.74,5.83,14.42,14.39,16.9,25.45h28.1c-3.93-16.34-12.45-29.6-25.34-39.43Z"/>
        </g>
      </g>
    </g>
  </g>
</svg>